<?xml version="1.0" ?>
<!-- Uploaded to: SVG Repo, www.svgrepo.com, Generator: SVG Repo Mixer Tools -->
<svg fill="#000000" width="800px" height="800px" viewBox="0 0 100 100" version="1.1" xml:space="preserve" xmlns="http://www.w3.org/2000/svg" xmlns:xlink="http://www.w3.org/1999/xlink">
<g id="backpack"/>
<g id="camping"/>
<g id="transportation"/>
<g id="navigation">
<g>
<path d="M50,4C24.6,4,4,24.6,4,50s20.6,46,46,46s46-20.6,46-46S75.4,4,50,4z M50,94C25.7,94,6,74.3,6,50S25.7,6,50,6    s44,19.7,44,44S74.3,94,50,94z"/>
<path d="M50,10c-22.1,0-40,17.9-40,40s17.9,40,40,40s40-17.9,40-40S72.1,10,50,10z M50,88c-21,0-38-17-38-38s17-38,38-38    s38,17,38,38S71,88,50,88z"/>
<path d="M80,41c-0.6,0-1,0.4-1,1v5.5c0,2.5-2,4.5-4.5,4.5h-4c-3.6,0-6.5,2.9-6.5,6.5c0,2.5-2,4.5-4.5,4.5h-9.2    c-1.1-2.4-3.5-4-6.3-4c-2.8,0-5-2.2-5-5v-3c0-2.8,2.2-5,5-5h15c3.9,0,7-3.1,7-7s-3.1-7-7-7h-3c-2.8,0-5-2.2-5-5v-1.5    c0.9-0.7,3-2.7,3-5.5c0,0,0,0,0,0c0-1.1-0.4-2.1-1.2-2.8C52.1,16.4,51.1,16,50,16c-2.2,0-4,1.8-4,4c0,2.8,2.1,4.7,3,5.5V27    c0,3.9,3.1,7,7,7h3c2.8,0,5,2.2,5,5s-2.2,5-5,5H44c-3.5,0-6.4,2.6-6.9,6h-3.6c-3,0-5.5,2.5-5.5,5.5v5c0,1.9-1.6,3.5-3.5,3.5    S21,62.4,21,60.5v-15c0-1.9,1.6-3.5,3.5-3.5h1c3,0,5.5-2.5,5.5-5.5V33c0-0.6-0.4-1-1-1s-1,0.4-1,1v3.5c0,1.9-1.6,3.5-3.5,3.5h-1    c-3,0-5.5,2.5-5.5,5.5v15c0,3,2.5,5.5,5.5,5.5s5.5-2.5,5.5-5.5v-5c0-1.9,1.6-3.5,3.5-3.5H37v2c0,3.9,3.1,7,7,7c2.8,0,5,2.2,5,5    v2.7l-6.9,12.8c-0.2,0.4-0.1,0.8,0.1,1.1c0.3,0.3,0.7,0.4,1.1,0.2l6.6-2.8l6.6,2.8C56.7,83,56.9,83,57,83c0.3,0,0.5-0.1,0.7-0.3    c0.3-0.3,0.3-0.8,0.1-1.1L51,68.7V66c0-0.3,0-0.7-0.1-1h8.6c3.6,0,6.5-2.9,6.5-6.5c0-2.5,2-4.5,4.5-4.5h4c3.6,0,6.5-2.9,6.5-6.5    V42C81,41.4,80.6,41,80,41z M48,20c0-1.1,0.9-2,2-2c0.5,0,1,0.2,1.4,0.6C51.8,19,52,19.5,52,20c0,1.7-1.3,3.1-2,3.7    C49.2,23.1,48,21.7,48,20z M50.4,78.1C50.3,78,50.1,78,50,78s-0.3,0-0.4,0.1l-4.4,1.9l4.8-8.8l4.8,8.8L50.4,78.1z"/>
<path d="M27.3,31.7c0.2,0.2,0.5,0.3,0.7,0.3s0.5-0.1,0.7-0.3l1.3-1.3l1.3,1.3c0.2,0.2,0.5,0.3,0.7,0.3s0.5-0.1,0.7-0.3    c0.4-0.4,0.4-1,0-1.4L31.4,29l1.3-1.3c0.4-0.4,0.4-1,0-1.4s-1-0.4-1.4,0L30,27.6l-1.3-1.3c-0.4-0.4-1-0.4-1.4,0s-0.4,1,0,1.4    l1.3,1.3l-1.3,1.3C26.9,30.7,26.9,31.3,27.3,31.7z"/>
<path d="M81.4,38l1.3-1.3c0.4-0.4,0.4-1,0-1.4s-1-0.4-1.4,0L80,36.6l-1.3-1.3c-0.4-0.4-1-0.4-1.4,0s-0.4,1,0,1.4l1.3,1.3l-1.3,1.3    c-0.4,0.4-0.4,1,0,1.4c0.2,0.2,0.5,0.3,0.7,0.3s0.5-0.1,0.7-0.3l1.3-1.3l1.3,1.3c0.2,0.2,0.5,0.3,0.7,0.3s0.5-0.1,0.7-0.3    c0.4-0.4,0.4-1,0-1.4L81.4,38z"/>
</g>
</g>
<g id="hotel"/>
<g id="money"/>
<g id="signpost"/>
<g id="ticket"/>
<g id="schedule"/>
<g id="beach"/>
<g id="mountain"/>
<g id="location"/>
<g id="traveling"/>
<g id="bonfire"/>
<g id="camera"/>
<g id="medicine"/>
<g id="drink"/>
<g id="canned_food"/>
<g id="nature"/>
<g id="map"/>
</svg>